<svg width="138" height="140" fill="none" xmlns="http://www.w3.org/2000/svg"><path d="M46.689 138.3c.031.353.104.662.194 1.088.295.387.854.136.808.007-.404-1.311-.222-3.242 1.279-3.342.253-.389.206-.796.54-1.008.296-.189 1.563-.351 1.952-.253.36.089.49.483.742.758.268.292.591.565.944.631.272.05 1.062.141.943-.758-.372-.23-.683.016-1.009-.189-.91-.569-.092-2.531.202-3.214.352-.132.506-.751 1.213-.694.321.027.545.38 1.012.63.654.351 1.432.542 2.02.189.353-.212.944-1.366.134-1.514-.55-.1-.408.305-.807.442-.226-.314-.143-.564-.54-.756-.27-.129-.71.009-1.009-.189-.236-.157-.46-.803-.472-1.135-.024-.626.37-1.252.808-1.514.55.041 1.12.005 1.077-.505-.027-.321-.246-.294-.606-.442-.744-.305-1.006-.148-1.75-.125-.538.016-1.06-.087-1.481-.125-.268-.025-.54.02-.808 0-.834-.069-1.612-.444-2.154-.253-.567-.416-1.272-.496-1.887-.694-.949-.307-1.936-.763-2.695-1.136-1.143-.562-2.001-1.213-3.166-1.639-.287-.496-1.036-.972-1.55-1.639-.223-.289-.447-.639-.673-.944-.248-.332-.559-.697-.673-.947-.482-1.052.372-1.996.741-2.711a105.17 105.17 0 0 1 2.763-1.577c.19-.292-.085-.613-.068-.695 2.684-1.361 5.423.845 8.285 1.198.479.059 1.196.132 1.685.063.294-.043.64-.377.944-.377.425 0 .807.4 1.213.566.579.239 1.272.242 1.415.82-.42.155-.894.519-.605 1.136.32.209.69.323 1.077.505.333.155.764.407 1.146.505.763.194 1.354.185 1.75.631.244.366-.053 1.081.134 1.575.278.726 1.455.771 2.291.63.141-.022.333.032.472 0 .138-.032.204-.177.338-.189.25-.02.45.094.673.064.336-.045.616-.234.944-.253.204-.011.525.035.807.064 1.078.105 1.119.2 1.751.756.859.753 1.374 1.427 2.09 2.208 1.04 1.136 1.855 1.725 2.222 3.341-.421-.052-.679-.596-1.146-.694-.542-.114-1.641.098-1.685.567-.05.571 1.634.937 2.021 1.135.343.176.659.492 1.012.692.418.239.863.367 1.145.567.69.499 1.678 1.776 2.155 2.522.272.426.403.929.605 1.389.078.175.219.302.27.441.732 2.017-.914 2.636-1.415 4.352-.295.291-.844.344-.81.945.017.088.11.107.134.189h.943c.766-.451 1.739-1.136 2.56-1.703.118-.08.22-.086.336-.189.263-.227.582-.412.944-.63.452-.276.822-.592 1.28-.756.524-.189.896-.091 1.48-.125.57-.034 1.209-.273 1.819-.442 1.797-.496 3.412-.981 4.715-1.955 1.428-.706 2.814-1.593 4.244-2.458 1.357-.822 2.711-1.625 4.041-2.586.48-.346.99-.662 1.55-1.008.505-.314 1.006-.535 1.617-.82.364-.17.707-.4 1.077-.566.763-.344 1.598-.64 2.424-.947.847-.314 1.598-.724 2.425-.883 1.119-.214 2.721-.344 3.883-.583.353-.073.759-.344 1.146-.567.345-.2.909-.385 1.009-.694.156-.478-.083-1.079-.404-1.261-.223-.128-.18-.128-.617-.118 0 0 .204-.251.668-.399 1.014-.321 1.209-.391 1.926-.853.436-.283.72-.795 1.28-.82.328-.457.78-.71 1.279-1.197.316-.31 1.087-1.311.27-1.514-.752-.186-.825 1.082-1.214 1.325-.63.492-1.204 1.018-2.089 1.514-1.026.576-1.884 1.12-3.368.883-.652-.398-.652-1.407-.605-2.458.221-.271.323-.713.605-1.009.314-.327.649-.423.876-.944.094-.223.218-.531.201-.631-.075-.457-.255-.246-.539-.567.323-.537.89-.849 1.213-1.386.409-.271 1.077-1.088.54-1.639-.927-.27-1.043.715-1.481 1.325-.552.767-1.87 1.771-2.896 2.397-.703.428-2.551 1.304-3.436.505-.3-.271-.735-1.479-.674-2.269.046-.601.503-1.088.404-1.575-1.138-.414-1.681.708-2.089 1.386-1.012.79-2.058 1.816-3.436 2.333-.404.15-1.16.139-1.953.125-.579-.537-.703-1.056-.54-1.766.053-.234.056-.56.134-.756.228-.566 1.104-.999.741-1.702-.999-.223-1.607.676-2.088 1.261-.67.817-1.37 1.459-2.09 2.208-.897.933-2.006 1.996-2.896 3.027-1.033 1.195-2.035 2.479-3.234 3.594-.88.819-1.68 1.671-2.558 2.522-.29.28-.589.617-.876.819-.201.144-.532.198-.81.378-.209.137-.371.364-.605.505-.107.064-.263.107-.404.189-.201.116-.829.615-1.077.631-.479.032-.88-.56-1.347-.378-.866.337-.742-.064-.742-.064a2.434 2.434 0 0 0-.202-1.072c-.243-.512-.598-.512-1.279-.819a3.39 3.39 0 0 0-.54-.82c-.19-.764.217-1.727-.335-2.08-.487-.31-.46.209-1.146.189-.15-.419-.741-.617-.875-1.136-.122-.464.139-.96-.068-1.514-.18-.204-.56-.232-.808-.063-.257-.028-.561-.28-.605-.442-.092-.328.102-.537.336-.947.133-.234.267-.557.403-.819.355-.685.99-1.086.876-1.575-.13-.553-.652-.237-1.214-.567-.121-1.25.258-3.109-.673-3.594-.368-.191-.603-.011-1.078-.064.07-.758.46-.906.472-1.575.01-.551-.372-.908-.472-1.386-.09-.433 0-.949-.133-1.325-.21-.578-.65-1.281-1.012-1.891-.613-1.04-1.513-1.71-.674-2.775.132-.166.377-.364.54-.441.2-.094.501-.007.742-.189.165-.126.163-.358.336-.631.22-.348.525-.64.807-1.008.14-.182.219-.465.338-.567.287-.253.783-.33.943-.567.214-.32.197-.867.336-1.26.07-.199.21-.383.27-.567.07-.217.058-.449.136-.63.287-.688.92-1.562 1.953-1.64.455-.99.693-1.8 1.01-2.9.091-.314.135-.733.269-1.008.28-.578 1.15-1.004 1.685-1.577.246-.264.484-.601.742-.883.297-.324.581-.565.742-.883.508-1.004.44-2.19.673-3.342.102-.5.243-1.083.336-1.639.092-.548.119-1.213.338-1.639.277-.537 1.508-1.245 2.089-1.638.773-.528 1.666-.947 2.29-1.45.095-.078.088-.237.202-.317.083-.057.239-.043.336-.127.16-.137.248-.36.404-.505.17-.158.389-.221.54-.378.15-.16.255-.349.403-.506.973-1.035 1.824-1.841 2.763-2.836.447-.475.875-.951 1.347-1.45.394-.416.975-.892 1.347-1.386.265-.35.48-.764.742-1.135.26-.367.413-.802.673-1.136.073-.094.258-.1.338-.19.175-.195.365-.566.54-.819.241-.348.397-.755.742-1.072 1.048-2.192 2.573-3.94 3.974-5.8 1.529.14 3.083 1.014 4.581 1.45.321.094.576.205.875.315.898.328 1.601.455 2.291.883.479.296 1.048.753 1.416 1.325.126.2.201.466.338.694.124.21.328.396.403.567.141.323.127.732.27 1.072.068.161.207.298.27.441.304.676.501 1.498.807 2.144.582 1.218 1.224 2.54 2.089 3.594.691.371.971.731 1.885.947.533.125 1.201.053 1.617.314.628.396.628 2.172.876 2.9.107.314.206.663.335.945.178.387.469.749.472 1.197.002.387-.229.649-.404 1.008-.082.169-.107.34-.202.506-.396.678-.994 1.525-1.213 2.269-.297 2.055.559 3.093 1.077 4.602.163.478.263.984.404 1.45.267.879.477 1.942 1.481 2.208.43.114 1.109-.048 1.549-.253.574-.266.909-.85 1.549-1.008.433-.107.888.05 1.347 0 .491-.055 1.116-.325 1.617-.503a8.622 8.622 0 0 0 2.089-1.072c.384-.27.82-.524 1.279-.82.217-.14.419-.352.606-.441.513-.241 1.099-.096 1.481-.505.948.159 1.724-.237 2.089-.82.846-.164 1.612-.721 2.359-1.072.632-.298 1.267-.35 1.75-.758.606-.507 1.525-1.8 1.28-2.9-.132-.582-.492-1.251-.876-1.766-.474-.633-1.206-1.215-1.347-2.208-.192-1.334.207-3.009 0-4.413-.146-.981-.941-1.996-1.483-2.711-.244-.323-.545-.498-.54-.945.007-.569.309-1.188.471-1.827.122-.474.341-1.623.202-2.333-.092-.48-.671-.9-.875-1.45-.148-.4-.122-.85-.27-1.198-.511-1.208-1.931-2.023-2.291-3.088-1.398-.651-2.383-1.8-3.504-2.775-.742-.644-1.539-1.352-2.425-1.955-1.378-.938-2.964-1.803-4.379-2.775-.669-.46-1.301-1.088-1.885-1.639-1.204-1.138-1.923-2.64-3.3-3.719-.564-.801-1.359-1.422-2.154-2.08-.776-.642-1.474-1.323-2.359-1.892-1.25-.803-2.695-1.502-4.042-2.333-.416-.257-.839-.612-1.279-.82-.34-.158-.8-.202-1.213-.377-.372-.157-.696-.382-1.078-.505-.389-.125-.819-.253-1.213-.378-1.155-.369-2.456-.66-3.772-1.008a34.69 34.69 0 0 0-1.279-.317c-.88-.191-1.797-.146-2.828-.378-.222-.05-.397-.15-.606-.189-.238-.045-.49-.02-.741-.063-.817-.137-1.637-.417-2.425-.63-.79-.215-1.57-.497-2.359-.695-.304-.077-1.328-.642-1.48-.883-.198-.307-.178-.754-.27-1.072-.22-.754-.487-1.327-.944-1.892-.766-.944-1.741-1.477-3.098-1.891-.409-.125-.883-.18-1.146-.506-.262-.325-.428-1.226-.338-1.638.168-.763 1.07-1.059 1.82-1.45.371-.196.72-.47 1.077-.63.211-.096.464-.096.673-.19.204-.093.346-.22.538-.316.963-.473 2.003-.756 3.166-1.134.64-.209 1.267-.455 2.02-.566 1.817-.273 3.478-.044 5.321.252 1.25.2 2.503.503 3.84.317.433-.57.367-1.339.472-2.02.207-1.354.117-2.947-.472-4.16-.404-.83-1.393-1.928-2.222-2.206-.319-.106-.689-.097-1.078-.188-.284-.067-.596-.264-.875-.315-.204-.036-.44.03-.674 0-.146-.018-.33-.111-.472-.127-2.132-.214-4.464.291-6.602-.253-.02-.19-.214-.23-.27-.316-.418-.637.088-1.593.134-2.458.046-.831-.25-1.987-.54-2.711-.136-.344-.401-.699-.605-1.072-.21-.38-.312-.817-.538-1.072-.267-.299-.78-.44-1.145-.695-.365-.254-.654-.632-.944-.819-.78-.503-1.77-.62-2.56-1.325-.613-.134-1.209-.327-1.82-.441-.61-.114-1.154-.276-1.75-.442-.586-.164-1.228-.21-1.887-.378-.552-.143-1.185-.35-1.751-.441-1.656-.264-3.687.353-5.255-.064-.433-.114-.85-.412-1.28-.442-.552-.038-1.128.194-1.685.128C64.66.434 64.113.03 63.583.004c-.76-.04-1.63.245-2.425.252-.48.005-.946-.236-1.415-.252-.193-.007-.428.093-.674.125-.53.07-1.447-.01-2.089.189-.262.082-.547.25-.875.378-.29.113-.533.236-.808.377-.612.315-1.31.48-1.682.695-.518.296-.74.89-1.214 1.26-.323.253-.766.372-1.077.631-.606.5-.927 1.216-1.685 1.575.053.408-.771.767-.808 1.261-.02.237.26.56.27.883.015.478-.472 1.127-.335 1.703.114.492.846.428 1.077.883.313.615-.24 2.329-.134 3.216.051.424.46.938.54 1.386.141.8-.21 1.846-.068 2.839.078.541.472 1.008.54 1.513.08.588-.178 1.448-.134 2.08.046.688.45 1.316.54 1.956.102.73 0 1.657-.27 2.08-.413.654-1.182.806-1.55 1.387-.218.346-.32.858-.47 1.26-.339.904-.495 1.708-.607 2.839-.121 1.215-.157 1.864-.807 2.71-.245.32-.518.743-.742.884-.564.355-1.52.428-2.222.442-.783.015-1.578-.196-2.359-.19-.367.003-.712.062-1.077.064-.375 0-.769.01-1.146 0-.812-.018-1.61-.15-2.424-.125-.722.02-1.37.348-2.157.378-1.014.603-2.099.83-2.965 1.386-.885.567-1.631 1.261-2.424 1.892-1.209.96-2.198 2.078-3.166 3.28-.905 1.12-2.058 2.273-2.828 3.53-.52.846-1.124 1.652-1.617 2.585-.504.954-.8 2.033-1.078 3.153-.265 1.063-.367 2.251-.741 3.405-.49 1.51-2.007 2.212-3.3 3.152-.689.927-1.678 1.546-2.561 2.334-.589.523-1.17.92-1.751 1.513-.766.783-1.702 1.546-2.56 2.333-.507.979-1.219 1.944-1.686 3.089-.447 1.1-.888 2.33-1.01 3.658-.12 1.31.278 2.688.27 4.16-.284.103-1.072-.13-1.548 0-.462.126-.822.75-1.078 1.198-.308.546-.425 1.16-.605 1.639-.095.25-.292.482-.404.758-.121.293-.126.56-.27.819-.474.854-.773 1.275-1.549 1.703-.243.134-.467.266-.673.377-.448.24-1.022.487-1.28.758a4.192 4.192 0 0 0-.27.378c-.097.18-.094.517-.201.694v.253c-.032.86.902 1.284 1.009 2.08.095.706-.399 1.398-.404 2.27.224.416.475.812.674 1.136.083.134.112.336.202.441.262.303.69.398.875.756.302.583.166 1.29.404 1.828.097.216.396.441.54.694.18.32.221.683.403.883.144.16.472.266.674.378.372.21.652.237 1.145.378.324.09.693.339 1.012.377.365.046.71-.072 1.077-.063.684.02 1.365.195 2.09.189.284.175.096.792.54.819.585-.323.94-.787 1.346-1.197.397-.399.917-.78 1.28-1.325.128-.193.136-.419.27-.63.092-.146.294-.219.403-.378.282-.415.396-.988.674-1.386.153-.219.42-.401.605-.63.285-.356.535-.802.807-1.073.268-.264.808-.749 1.078-.883.362-.18.853-.241 1.279-.442.537-.252 1.155-.514 1.549-.82.409-.313.618-.425.944-.755.542-.55.535-.924.875-1.702.34-.774.615-1.38.472-2.522.301-.349.724-.583 1.415-.567.946.733.671 2.608 1.617 3.341.294.144.443-.152.876-.064.79.401.656 1.4 1.213 1.956.304.3.839.341 1.145.63.142.135.207.378.338.567.694 1.01 1.27 2.037 1.953 2.964.508.154.572.553.876.819.454.398 1.12.533 1.549 1.072.223.282.416.728.605 1.072.445.799.742 1.612 1.078 2.397.17.398.335.874.54 1.197.067.107.3.428.403.505.219.164.69.148.944.317.683.453.727 1.743 1.279 2.397.343.405.895.637 1.279 1.008.294.284.515.637.742.947.243.332.52.653.673 1.008.338.128.66.469.674.82.017.352-.426.814-.54 1.324-.105.469-.024 1.081-.134 1.578-.056.25-.185.425-.202.63-.058.683.149 1.252.27 1.892-.396.491-.698 1.069-1.077 1.575-.39.047-.642-.151-.944 0-.79 1.047-1.7 1.98-3.098 2.458-.282.467-.53.933-1.077 1.072-.659.166-1.739-.314-2.359-.505-.52-.576-1.26-.936-1.683-1.639-.228-.378-.274-.799-.54-1.197-.184-.28-.505-.483-.741-.756-.226-.264-.365-.856-.876-.694-.111.487.107.937.202 1.386.102.476.112 1.02.27 1.45.027.07.16.111.202.189.246.466.365.562.674.944.559.697 1.084 1.455 1.682 1.955.589.208.932.642 1.348 1.009.192.726.561 1.45.875 2.016.338.613.74.943 1.077 1.45.102.155.173.349.27.506.307.489.662.869.944 1.388.18.33.418.751.54 1.072.158.419.19.897.338 1.325.146.421.296.849.471 1.261.34.799.808 1.582 1.078 2.397.068.209.048.43.133.63.105.246.334.446.472.694.146.26.273.517.404.758.834 1.528 1.858 2.937 2.694 4.35.538.341.779.986 1.214 1.45.406.432.956.81 1.415 1.197.462.389 1.226 1.241 1.953 1.095.277-.091.394.305.413.521l-.002-.02ZM34.69 70.1c.25-.42.35-.833.674-1.072.097-.63.477-1.168.674-1.703.194-.53.304-1.215.673-1.639.433-.498 1.398-.667 2.09-1.072.85-.498 1.283-1.09 2.02-1.45.693-.339.895.959 1.01 1.325.198.63.507 1.48.874 2.144.514.927 1.474 1.728.674 2.775-.374.49-1.177.771-1.685 1.136-1.046.748-1.22 1.138-1.685 2.522-.105.31-.321 1.19-.674 1.324-.365.141-.944-.195-1.415-.505-.348-.228-.973-.624-1.146-.82-.45-.507-.325-.864-.807-1.072-.53-.227-1.727-.031-1.887-.694-.102-.425.401-.856.605-1.197l.005-.002Z" fill="#000"/><path d="M63.926 14.803c.126-.521.156-1.211 0-1.766-.55-.164-1.056-.686-1.82-.442-.099 1.118.618 2.303 1.82 2.206v.002Z" fill="#fff"/><path d="M131.352 62.636c-.168-.355-.657-.881-.873-1.2-.059-.084-.136-.166-.202-.252-.474-.636-.929-1.441-1.411-1.958-.141-.15-.393-.228-.537-.38-.148-.157-.199-.344-.336-.505-.206-.246-.442-.43-.605-.63-.691-.855-1.79-1.542-2.624-2.15-.204-.439-.885-.434-1.075-.885-.734-.212-1.391-.644-2.018-1.013-1.999-1.172-3.85-2.303-5.112-4.106-.352-.132-.486-.471-.873-.57.029-.238-.131-.295-.202-.44-.469-.253-.797-.64-1.143-1.011-.34-.367-.831-.635-1.009-1.136-1.009-.578-1.831-1.443-2.826-2.149-.248-.175-.564-.27-.807-.444-.243-.17-.438-.393-.674-.569a80.367 80.367 0 0 0-2.893-2.085 25.253 25.253 0 0 0-1.547-.949c-1.432-.824-2.646-1.55-4.375-1.962-.343-.082-.739-.202-1.077-.255-.214-.034-.447.03-.674 0-.33-.043-.654-.184-1.011-.255-1.026-.2-2.043-.564-3.098-.698-1.253-.16-2.544-.137-3.772-.385-.204-.041-.392-.162-.606-.191-.287-.039-.559.032-.81 0-.965-.128-1.626-.649-2.76-.635-.68.612.628 2.494-.544 2.522-.62.013-.674-1.138-.87-1.894-.36-1.368-.293-2.64-.533-3.847-.059-.291-.059-.705-.134-.947-.15-.487-.72-1.26-1.007-1.516-.661-.584-1.673-1.06-2.76-.823-.447.764.202 1.02.603 1.324.744.57 1.532 1.325 1.814 2.274.304 1.024.124 2.508.13 3.783 0 .62.135 1.297.198 1.892.059.564.32 1.35-.408 1.575-.562-.417-.613-1.245-.669-1.894-.06-.685.044-1.407.005-2.144-.017-.303-.114-.617-.134-.947-.036-.63.073-1.33-.063-1.892-.17-.698-1.21-2.128-2.016-1.768-.226.1-.433.619-.474.944-.105.838.321 1.143.603 1.767.545 1.202.572 2.827.53 4.415-.02.783.309 2.893-.544 2.836-.288-.018-.475-.384-.538-.819-.163-1.118.153-3.073.075-3.783-.082-.742-.4-1.987-.6-2.46-.343-.813-.705-.715-1.143-1.453.082-.243.304-.418.406-.692.051-.136-.051-.318 0-.505.039-.143.163-.241.202-.378.177-.626.116-1.063.138-1.702.047-1.432.47-2.893.48-4.161-.601-.25-2.782.61-2.493-.435l-.92-.69-1.16-.787-1.22-.958-.316-.528c-.474-.09-.84-.226-.9-.522l-.503-.1-1.345-.569-1.012-.887-.097-.645.066-.066c.116-.5.59-.953.887-1.27.487-.519 1.063-1.206 1.688-1.573.812-.475 2.322-.698 3.234-1.003.375-.126.761-.19 1.08-.314.47-.187.732-.544 1.213-.629.234-.546.737-.967 1.014-1.511.224-.437.244-.94.608-1.322 2.281-.3 2.87 1.852 5.185 1.52.438-.43.547-.904.608-1.45.457-3.951-1.46-5.843-4.365-7.131-.893-.396-1.822-.576-2.896-.763-.365-.061-.725-.18-1.012-.19-.192-.01-.345.084-.537.06-.458-.052-.898-.263-1.348-.318-1.819-.216-3.786-.278-5.454-.45-.333-.035-.72-.071-1.01-.128-.45-.087-.843-.394-1.279-.508-.284-.072-.69-.08-1.009-.127-.924-.139-1.884-.246-2.828-.382-.671-.098-1.264-.324-1.819-.38-.783-.083-1.654-.026-2.29.059-.823.109-1.795.53-2.428.814-.277.126-.612.192-.81.315-.143.088-.126.2-.27.314-.128.104-.328.088-.471.189-.28.193-.435.484-.81.503-1.865 1.618-2.631 3.967-2.237 6.994.06.46.263.929.066 1.45.197.244.24.592.267.883.158 1.669.078 3.419.124 5.172.024.878.136 1.716.197 2.585.068.99.049 2.003.129 2.964.085 1.015.486 1.914.33 2.9-.388.236-.858.018-1.415.061-.46.24-.627.717-.81 1.197-.18.47-.435 1.002-.542 1.512-.08.387-.078.82-.136 1.26-.134.986-.46 2.131-.545 3.153-.056.672.11 1.414-.34 1.953-.292.032-.355.128-.606.125-.454-.004-.683-.403-1.009-.444-.124-.016-.554.119-.742.19-.282.104-.454.288-.741.314-.499.045-1.031-.294-1.683-.38-.849-.114-1.892.027-2.694-.069-1.455-.17-3.274-.771-4.716-.26-.676.24-1.055.442-1.685.754-.503.25-1.097.432-1.415.628-.178.11-.239.321-.406.442-.178.13-.438.2-.608.314-.346.232-.632.544-1.012.756-.311.261-.637.505-.943.817-.141.14-.248.357-.406.503-.18.168-.4.186-.54.378-.151.204-.168.46-.27.691-.326.148-.574.478-.742.692-.377.476-.888.767-1.282 1.195-.192.21-.338.522-.54.756-.199.232-.5.403-.673.63-.143.187-.195.428-.338.631-.136.189-.309.314-.472.503a10.694 10.694 0 0 0-1.216 1.764c-.345.606-.858 1.364-1.082 1.953-.08.21-.056.469-.136.694-.073.205-.27.364-.338.567-.126.38-.156.895-.272 1.325-.115.428-.27.849-.338 1.26-.073.431.026.882-.07 1.325-.047.214-.244.474-.339.692-.353.813-.59 1.466-1.082 2.079-.314.066-.53-.167-.742 0-1.595 1.279-3.468 2.471-4.856 3.837-.518.51-.878.99-1.35 1.511-.233.258-.56.453-.741.692-.324.422-.523.936-.81 1.387-.146.227-.348.41-.472.63-.148.262-.25.505-.406.756-.574.924-1.019 1.914-1.554 2.897-.399 1.853-.537 3.667-.28 5.738.28.096.511.237.876.253.763.592 1.583.888 2.558 1.266.35.136.647.343 1.01.505.714.319 1.543.466 2.288.76.69.273 1.342.708 1.95 1.075.673.405 1.413 1.256 1.95 1.326 2.736.365 4.523-1.395 5.934-2.701.02-.267.248-.405.406-.63.143-.203.238-.495.406-.693.367-.441.91-.82 1.35-1.258.544-.542 1.203-1.111 1.687-1.637.55-.599 1.148-1.11 1.688-1.636.226-.221.542-.412.742-.629.138-.152.187-.42.338-.63.153-.212.355-.369.471-.567.253-.421.584-.963.745-1.322.245-.553.245-1.314.408-1.892.085-.305.3-.594.474-1.008.151-.36.382-2.017 1.082-1.89.47.085.236.722.606 1.011.929-.068 1.389-.567 1.955-.942.618-.41 1.194-.742 1.753-1.131.3-.21.584-.44.878-.629.22-.14.528-.225.742-.377.311-.221.503-.544.81-.756.326-.223.668-.442 1.011-.628.258-.14.565-.171.81-.314.445-.264.941-.763 1.282-1.07.435-.392.86-.774 1.281-1.134.083-.275.117-.608.273-.883.2-.36.578-.692.81-1.07.119-.195.213-.425.337-.63.212-.346.869-1.477.679-2.08-.083-.26-.727-.44-.74-.759-.011-.33.487-.721 1.012-.628.44.078.75.729.808 1.01.277 1.387-.577 2.063-.815 3.09-.824.8-1.077 1.83-1.824 2.645-.311.339-.77.566-1.148.88-1.155.963-2.325 1.849-3.44 2.768-.076.587-.149 1.024-.071 1.514.029.189.173.382.202.566.031.208-.042.417 0 .631.192 1.047.732 1.873 1.274 2.588.365.478.878.972.941 1.325.146.82-.832 1.698-1.352 2.33-.769.934-1.41 1.985-2.162 2.77-.051.31-.177.551-.406.693-.314.864-.231 2.1-.545 2.963-1.109.246-1.858.783-2.427 1.51-.197.25-.437.511-.608.755-.291.414-.462.91-.744 1.258-.107.135-.304.183-.406.315-.168.223-.299.635-.474.944-.217.385-.484.704-.54.945-.117.487 0 1.042-.139 1.513-.243.82-.885 1.453-1.082 2.206-.148.574-.007 1.102-.002 1.703.007.88-.26 2.271-.141 3.405.11 1.033.542 1.638.87 2.46.227.562.329 1.186.535 1.514.273.428.856.5 1.28 1.01.216.262.352.647.537.947 1.398 2.276 3.19 3.965 5.041 5.748.725.079 1.102.482 1.143 1.199 1.294.701 2.407 1.571 3.701 2.213.355.175.7.368 1.01.505.461.202 1.342.157 1.344.885-.126.376-.593.175-1.011.189-.737.023-1.435.132-1.82.437-1.162.92.949 1.637 1.815 2.085.352.182.746.439 1.143.633.462.223 1 .378 1.279.569.182.125.399.414.673.633.26.207.528.469.74.569.42.195.91.18 1.279.318.635.235 1.111.54 1.546.886.231.184.545.432.674.569.168.182.224.507.47.694.332.25 1.332.524 1.682.697.124.061.326.079.404.127.598.362.576 1.104.47 1.641.86.533 2.462.13 2.827 1.204-.172.751.31.792.808.883.243.046.498.116.741.128.805.032 1.413-.266 1.956-.312.398-.032.787.027 1.077.127.873-.423 1.48-1.04 2.023-1.698.204-.248.533-.475.54-.819-.983.146-2.25-.79-2.019-1.705.163-.639.917-.496 1.686-.564.117-.462-.034-.945-.268-1.514-.204-.501-.673-.865-.603-1.388.037-.271.443-.588.472-.82.15-1.179-1.79-2.162-1.61-3.029.049-.242.367-.458.608-.44.669.046.623 1.107 1.413 1.264.233-.503-.355-.924-.538-1.261-.092-.173-.111-.342-.201-.506-.317-.582-.83-1.11-1.007-1.766-.129-.473.105-.945.002-1.45-.138-.696-1.342-1.42-1.882-2.524-.207-.423-.228-.94-.401-1.325-.229-.51-.615-.926-.805-1.325-.134-.282-.105-.721-.2-1.008-.218-.653-.87-1.117-1.276-1.705a5.552 5.552 0 0 1-.47-.883c-.264-.578-.05-1.224-.199-1.891-.136-.613-.608-1.09-.939-1.703-.094-.605-.972-1.504-.265-1.83.394-.182.67.29 1.078.444.37.913.8 1.411 1.478 2.21.435.512 1.026.958 1.075 1.516.024.28-.122.61-.136.883-.056 1.118.44 1.798.805 2.397.33.542.858 1.591 1.075 1.83.218.244.603.373.67.694.15.681-.631 1.209-.203 1.703.622-.089.693-.697 1.147-.945.027-.332.122-.6.338-.756-.005-.437.314-1.345.406-1.702.047-.173.02-.341.069-.503.01-.03.116-.068.133-.125.032-.098-.026-.219 0-.317.173-.591.822-1.714 1.216-1.764.504-.061.545.43 1.01.317.026-.817.145-1.548.206-2.333.382-.633.764-1.769 1.554-1.762.635.005.615.696 1.211.885.465-.853.272-1.88.411-2.836-.129-.314-.654-.434-.671-.82-.012-.245.384-.627.676-.944.309-.339.494-.698.676-1.008.69-1.163 1.226-1.53 1.352-2.898.017-.193.319-.587-.134-.63-.467.284-.547 1.058-.878 1.575-.289.453-1.099 1.282-1.551 1.826a11.3 11.3 0 0 1-.81.88c-.294.29-.635.74-1.08.629-.972-.244.244-1.325.475-1.576.19-.207.294-.398.471-.566.946-.893 1.78-1.792 2.029-3.15.46-.41.593-1.127 1.013-1.576.988-.17 1.593-.632 2.294-1.006.37-.195.785-.31 1.145-.503 2.208-1.174 4.061-2.63 5.802-4.151 2.367-2.07 4.147-4.607 6.277-6.863.299-.78.91-1.407 1.418-2.078.517-.685.943-1.427 1.417-2.142.706-1.063 1.46-2.208 2.028-3.275.069-.128.01-.276.069-.378.04-.075.218-.107.27-.189.45-.715.744-1.493 1.15-2.267.734-1.4 1.262-2.975 1.962-4.347.134-.26.219-.701.674-.631.394 1.209-.963 2.03-.747 3.341.015.096.2.47.268.57.304.432 1.04.88 1.748 1.263.642.346 1.651 1.013 2.288 1.138 1.552.305 3.495.523 4.443 1.206.326.018.54-.139.81 0 .438 1.134.747 2.804 1.138 3.91.161.458.324.724.47 1.011.08.162.068.36.133.505.409.902.944 1.4 1.547 2.022.306.316.552.641.805.947.44.525.943 1.001 1.478 1.452.414.348.915.835 1.345 1.01 1.308.533 2.588-.177 3.303-.623.158-.098.323-.171.471-.253.623-.341 1.16-.758 2.024-.879.649-.69 1.721-.723 2.764-1.003.21-.057.39-.19.608-.25.815-.23 1.749-.322 2.629-.502.929-.188 1.865-.31 2.763-.373.578-.446 1.016-1.236 1.15-2.142.141-.942-.029-2.51-.331-3.152l-.019-.002Zm-60.69-28.98c.204-.196.734-.075.807.252.102.458-.713.997-.876 1.325-.556 1.122-.114 2.864.134 4.16.163.85.411 1.813.336 2.398-.047.36-.095.828-.876.883-.554-.642-.313-1.393-.403-2.144-.049-.408-.224-.847-.336-1.261-.11-.403-.338-.79-.404-1.197-.33-2.054.523-3.365 1.618-4.414v-.002ZM59.546 10.264c.053-.011.068-.064.133-.064.46.169 1.3.578 1.953.82.2.075.504.109.674.189.532.25.987.7 1.617.883.233.068.496.013.742.063 1.15.228 2.957.797 3.771 1.45.443.355 1.569 1.603.876 2.333-.657.132-.65-.71-1.214-.755-.32-.028-.712.337-1.009.505-.467.26-.853.514-1.415.567-.75.07-1.644-.044-2.29-.317-.186-.077-.3-.277-.473-.378-.255-.148-.571-.189-.807-.441-.465-.496-.778-.983-1.145-1.766-.137-.72-.047-1.355-.338-1.828-.285-.467-.959-.553-1.146-1.072-.02-.103.063-.11.068-.19h.003Zm8.015 24.275c-.287.646-.263 1.384-.404 2.208-.15.878-.343 1.793-.403 2.71-.061.888.126 1.894-.472 2.523-.6-.04-.713-.754-.742-1.261-.027-.483.073-1.47.202-2.397.107-.758.163-1.603.338-2.208.032-.114.177-.266.202-.378.146-.644.112-1.179.404-1.639.238-.373.73-.885 1.279-.63.214.46-.234.69-.404 1.072Zm-3.84 6.052c-.08.362-.425.845-.673.82-.53-.053-.375-1.059-.336-1.828.075-1.555-.046-2.51.202-3.847.262-1.411.695-2.588 1.549-3.027.14.036.216.132.336.189-.069.858-.58 1.386-.742 2.144-.192.899-.22 2.09-.27 3.152-.041.829.095 1.66-.068 2.397h.002Zm-4.783-5.549c.14-.464.228-.676.472-1.072.32-.524.505-.756.943-1.197.416-.421.82-1.025 1.481-.442-.075.462-.433.407-.674.63-.515.476-.865 1.189-1.145 1.892-.311.78-.42 1.505-.54 2.397-.053.403-.2.79-.202 1.197-.005.742.265 1.589-.335 2.019-1.245-.214-.747-1.703-.606-2.586.141-.885.146-1.693.404-2.522.032-.1.168-.2.202-.316Zm-.068-4.225c.087.551-.358.553-.54.695-.66.51-1.384 1.52-1.617 2.585-.241 1.104-.149 2.274-.27 3.342-.061.532-.214 1.242-.742 1.136-.55-.114-.406-1.571-.338-2.208.075-.68.1-1.45.202-2.017.243-1.343 1.026-2.221 1.617-3.089.557-.095 1.038-.837 1.685-.441l.003-.003Zm-4.582-.819c.192-.157.667-.396 1.01-.505.328-.103.904-.303 1.213.064-.039.46-.574.548-.876.755-.318.219-.552.508-.875.694-.202.588-.42 1.161-.54 2.017-.073.535-.068 1.12-.134 1.766-.021.223-.126.43-.133.63-.017.406.158.745.068 1.137-.076.325-.501.837-.81.819-.756-.043-.401-1.58-.336-2.27.064-.662.217-1.547.134-2.143.438-.931.445-2.281 1.28-2.964Zm-4.11 5.358c-.123-.637.292-1.536.404-2.206.097-.566.139-1.138.27-1.702.27-1.163.438-2.197 1.01-3.152.318-.303 1.099-.779 1.616-.317-.172.58-.386.319-.673.63-.19.208-.508.813-.606 1.134-.046.157-.012.46-.068.758-.078.414-.296.954-.403 1.514-.103.528-.21 1.104-.27 1.577-.09.688 0 2.194-.472 2.333-.375.11-.74-.21-.807-.567v-.002Zm-7.543 40.037c-.569-.302-.314-.862-.202-1.324.555-2.302 2.16-4.186 3.502-5.739.304.135.644.237.742.567-.761.774-1.338 1.803-1.887 2.9-.156.314-.404.683-.54 1.008-.268.647-.27 1.336-.472 1.956-.092.286-.725.607-1.145.63l.002.002Zm1.82.064c-.567-.241-.276-1.195-.069-1.764.62-1.705 1.707-3.519 2.626-4.666.48.182.83.485 1.347.63-.617.683-1.067 1.344-1.685 2.208-.357.501-.795 1.15-1.011 1.828-.183.576-.312 2.149-1.214 1.764h.005Zm2.355.442c-1.128-.344-.525-1.698-.27-2.333.516-1.277 1.27-2.543 2.223-3.405.275.289.491.632.742.946-.153.424-.518.651-.876.884-.27.466-.418.912-.673 1.513-.076.18-.253.31-.338.505-.275.631-.168 1.485-.808 1.892v-.002Zm2.627-1.828c-.428.735-.375 1.691-.944 2.397-.245.02-.374-.07-.54-.125-.14-.553-.075-1.387.069-1.83.104-.324.18-.317.337-.63.217-.436.44-.75.742-1.137.134-.17.192-.36.27-.441.197-.205 1.277-1.05 1.55-1.072 1.19-.098.34 1.06-.27 1.135-.13.337-.397.58-.606.884-.183.264-.443.539-.606.819h-.002Zm1.617 3.405c-.294.007-.523-.269-.472-.883.022-.262.302-.57.404-.947.029-.105-.034-.28 0-.378.09-.246.28-.521.404-.82.286-.68.335-.885.807-1.385.391-.415.773-.829 1.347-.442.156.512-.467.76-.742 1.072-.27.754-.498 1.309-.875 2.333-.173.467-.452 1.439-.876 1.45h.003Zm2.492-1.008c-.551.47-.318 1.677-1.48 1.575-.022-.146-.069-.271-.202-.314.206-1.154.76-1.978 1.213-2.9.851-.446 1.248-1.646 2.627-1.386-.117.605-.713.917-1.078 1.325-.386.43-.666.903-1.077 1.324v.378l-.002-.002Zm1.82 1.45c-.256.607-.312 1.896-1.348 1.638-.255-.73-.048-1.331.27-2.016.239-.512.426-.902.742-1.386.38-.588.766-1.182 1.347-1.514.36-.205 1.364-.542 1.347.125-.005.237-.379.392-.605.567-.26.203-.426.394-.674.505-.348.587-.739 1.28-1.077 2.08h-.003Zm.741 2.774c-.977-1.513.66-3.484 1.347-4.73.424-.189.866-.946 1.416-.441-.669 1.664-2.096 2.62-2.021 4.98-.216.093-.375.24-.742.189v.002Zm3.03-.755c-.07.28-.221.505-.27.755-.094.49.051 1.04-.471 1.325-.394-.005-.62-.341-.674-.63-.066-.356.306-1.396.404-1.828.038-.169-.042-.294 0-.442.07-.25.27-.53.403-.82a5.37 5.37 0 0 1 .674-1.135c.114-.15.148-.328.202-.378.165-.152.814-.56.943-.567.22-.013.414.028.54.253-.02.549-.698.76-.943 1.197-.11.196-.134.49-.27.758-.11.216-.35.415-.404.567-.092.262-.06.653-.134.947v-.002Zm2.493-1.072c-.24.553-.6 1.088-.742 1.891-.107.615.088 2.121-.807 1.955-.92-.17-.117-2.485.068-2.963.095-.248.136-.494.202-.63.481-.998 1.884-2.01 2.626-2.398.122-.063.324.064.404.126-.07.91-1.209 1.343-1.751 2.019Zm1.549 3.152c-.146.398-.234 1.088-.54 1.577-.112.105-.396.05-.606.064-.267-.544-.228-1.181 0-1.766.037-.096.236-.196.27-.314.035-.116-.034-.303 0-.378.241-.524.689-1.184 1.078-1.703.72-.958 1.286-1.513 2.154-2.144.27 0 .433.098.54.253-.304.872-1.038 1.34-1.617 1.955-.46.785-.917 1.464-1.28 2.458v-.002Zm1.347 2.647c-.374.078-.408-.164-.605-.252.143-1.569 1.018-2.452 1.347-3.847.45-.653 1.019-1.19 1.549-1.766.23-.028.377.025.54.063.345.588-.326.897-.606 1.261a7.12 7.12 0 0 0-.943 1.703c-.098.27-.095.555-.202.82-.268.66-.606 1.406-1.078 2.016l-.002.002Zm2.29.378c-.184.432-.18.97-.673.883-.275-.048-.399-.341-.335-.883.017-.148.153-.246.201-.378.088-.239.11-.473.202-.694.085-.203.166-.421.27-.63.346-.69.82-1.596 1.348-2.27.488-.626.714-1.022 1.415-1.325.121-.009.143.078.27.064.233.546-.394.742-.404 1.261-.632.408-1.046 1.455-1.415 2.206-.321.657-.69 1.329-.876 1.766h-.002Zm2.292.505c-.149.528-.156 1.43-.808 1.325-.778-.127-.202-1.6 0-2.144.326-.885.42-1.004.876-1.639.571-.797 1.262-1.502 1.685-2.458-.037-.31.445-.17.605-.125.159.992-.52 1.643-.943 2.333-.263.428-.474.862-.807 1.197-.093.528-.436.904-.606 1.514l-.002-.003Zm3.03-.758c-.244.406-.47.981-.808 1.45-.284.396-1.561 1.84-1.617.567-.03-.644 1.44-1.61 1.481-2.333.377-.216.452-.713.81-.945.209-.667.62-1.142.875-1.766.025-.082.12-.1.134-.189.399-.08.481.139.674.253-.16 1.147-.973 2.003-1.55 2.963Zm2.358-44.578c-.094.462.037.979-.068 1.386-.063.25-.391.765-.673.756-.64-.016-.54-1.175-.54-2.017 0-.712.063-1.816 0-2.522-.129-1.404-.294-2.663.202-3.719.309-.296.955-.863 1.483-.378-.185.963-.5 1.835-.404 2.964.03.33.122.68.202 1.008.08.328.265.66.27.947.007.414-.347.981-.472 1.577v-.002Zm3.235-1.325c-.042 1.022.17 3.528-.742 3.467-.65-.043-.404-1.386-.404-2.206 0-.724-.041-1.782 0-2.647.049-1.024.12-1.948-.133-2.586-.105-.259-.227-.41-.338-.566-.049-.069-.628-.547-.069-.82 1.396.187 1.885 1.682 1.885 3.342 0 .621-.173 1.324-.202 2.016h.003Z" fill="#fff"/><path d="M19.937 81.575c-.623.237-.93.829-1.348 1.261-.437.453-.872.91-1.279 1.389-.457.336-.32.84-.875.883-.355.027-.637-.333-.674-.506-.129-.61.472-1.024.808-1.388.785-.851 1.466-1.323 2.02-2.458.263-.54.506-1.414-.068-1.514-.493-.084-.822.792-1.077 1.261-.148.275-.333.458-.472.694-.248.424-.46 1.063-.741 1.325-.244.223-1.328.958-1.55.883-.99-.334.314-1.3.472-1.702.635-.57 1.253-1.5 1.617-2.397.163-.403.438-1.05-.27-1.197-.527.011-.712.887-1.145 1.197-.545 1.286-1.218 2.442-2.154 3.28-.273.243-.618.635-1.012.252.246-.921.73-1.609 1.213-2.333.453-.676 1.163-1.383 1.012-2.396-.433.148-.5.626-.742.947-.236.316-.513.62-.741.946-.222.317-.491.626-.742.945-.238.305-.452.785-.944.82-.445-1.036.424-1.876.876-2.775.35-.69.751-1.412.673-2.208-.916-.665-1.692.917-2.088 1.513-.064.096-.217.155-.27.253-.09.169-.049.332-.134.442-.226.286-.63.514-1.01.505.057-.571.414-1.12.808-1.766.586-.96 1.55-2.443-.472-2.08-.574.56-.749 1.579-1.077 2.521-.297.847-.365 2.183-1.617 1.956-.234-.772.15-1.603.404-2.397.192-.603.377-1.23.471-1.828.027-.164.231-.471-.068-.567h-.133c-.086.028-.14.082-.134.19-.324.575-.455 1.41-.742 2.08-.26.607-.498 1.292-.807 1.827-.443.767-1.102 1.097-1.887 1.514-.236.125-.462.3-.674.378-.399.148-.824.161-1.145.314-.316.152-.727.432-.808.63-.24.59.31 1.298.54 1.703.095.168.124.391.202.505.187.271.479.428.606.694.342.713-.329 1.475-.202 2.27.133.849.831.708 1.213 1.513.231.49.238 1.96.807 2.145.353.113 1.056-.194 1.481-.315.966-.273 1.744-.38 2.36-.755.111-.069.238-.07.335-.128.365-.211.603-.614 1.145-.63.385.42-.048.944-.133 1.26-.076.278-.005.79-.339 1.01-.37.243-1.174-.07-1.819.063-.564.114-1.157.41-1.145.82.02.607.973.596 1.751.63 1.282.054 1.564.102 2.425-.317.158-.077.301-.277.471-.377.226-.135.472-.148.606-.253.326-.253.617-.754.742-1.072.128-.335.291-.57.471-.883.423-.745.91-1.455 1.347-2.145.365-.57.89-.946 1.012-1.638.555-.533 1.153-1.022 2.356-.947.774-.348 1.416-.82 2.021-1.325.197-.667 1.114-1.875.27-2.522h.003Zm12.866-2.46c-.138-.278-.14-.64-.338-.883-.25-.312-.744-.433-1.009-.758-.221-.271-.28-.697-.54-1.009-.092-.111-.418-.25-.673-.441-.246-.183-.406-.41-.606-.506-1.055-.498-1.624.24-2.154.82-.677.74-1.503 1.589-2.09 2.205.149 1.166.032 2.242.472 3.153.244.503.737.79 1.078 1.26.308.426.454.932.673 1.198.244.294.686.478.944.756.515.557.788 1.267 1.213 1.891.183.266.501.494.742.756.727.799 1.42 1.693 2.425 2.144.503-.398.559-.951.605-1.514.085-.994-.017-1.912.27-2.71.107-.301.338-.533.472-.82.38-.81.537-2.007.54-3.089-.55-.744-1.513-1.443-2.021-2.458l-.003.005Zm-2.628-3.908c.216.154.437.316.605.441.45.335 1.038.599 1.28.883.191.228.225.606.403.82.277.334.669.491.875.819.22.346.27.758.472 1.072.426.66.98 1.079 1.683 1.325 1.026-.842 1.707-2.172 2.56-3.28.278-.36.79-.847.742-1.261-.046-.38-.43-.476-.807-.756-.36-.266-.676-.526-.944-.694-.778-.487-1.398-.81-1.887-1.386-.355-.007-.712-.332-1.213-.442-.44-.095-.946-.038-1.481-.125-.538-.089-.88-.34-1.211-.064-.543.451-1.873 1.223-1.617 2.145.039.14.253.3.54.503Zm21.154 37.956c-.727-.282-1.277-.569-1.55-.819-.22-.831-.724-.983-1.548-1.386-.394-.194-.737-.43-1.078-.631-.778-.457-1.926-.824-1.887-1.577.015-.289.273-.412.54-.694.472-.496.854-.801 1.28-1.197-.293-.422-.86-.585-1.416-.756a2.328 2.328 0 0 0-1.415-.947 3.181 3.181 0 0 0-.742-.567c-.243-.136-.717-.409-.944-.441-1.164-.166-.963.596-.741 1.324.1.326.133.617.201.884.12.464.475.728.606 1.072.253.657.063 1.34-.202 1.702.151.194.214.471.27.758-.318.501-1.488.205-1.819.694-.275.938.17 1.687.472 2.208.134.23.294.635.54.694.23.055.846-.179 1.279-.316.41-.127.822-.357 1.213-.378.292-.016.543.096.808.128.919.109 1.352.063 1.819.503 1.143.1 1.94.475 2.896.63.659.107 1.347.093 1.887.442.338-.278 1.021-.082 1.077-.503.059-.421-.975-.597-1.549-.82l.003-.007Zm25.935-31.274c-.034.196.416.522.54.82.163.391.004 1.124-.134 1.638-.406 1.496-1.508 2.502-1.82 3.847.422.016.77-.496 1.078-.883.44-.55.744-1.179 1.01-1.828.177-.434.216-.607.337-1.072.236-.91.36-2.347-.068-2.9-.352-.009-.89.078-.943.378Zm58.674-2.458c-.564-1.01-1.615-1.561-1.955-2.963-.372-1.541.034-3.258-.336-4.73-.048-.198-.226-.426-.335-.692-.311-.747-.608-1.917-1.617-1.514-.076.763.364 1.489.673 2.206.324.749.496 1.595.54 2.458.034.644-.022 1.828-.674 1.828-.865 0-.532-1.626-.605-2.27-.066-.585-.302-1.614-.472-2.019-.187-.446-.211-.65-.403-1.008-.188-.346-.455-.605-.606-.82-.221-.309-.275-.746-.606-.882-.162-.026-.145.116-.335.063-.158.993.564 1.696.875 2.459.158.612.817 1.873.606 2.963-.114.594-.696 1.99-1.481 1.575-.338-.676.255-1.265.335-1.955.137-1.16-.355-2.07-.673-2.711-.348-.699-.761-1.914-1.549-1.891-.557.814.175 1.709.472 2.585.218.647.437 1.462.605 2.144.234.938.122 2.142-.875 2.142-.664-.45-.244-1.213-.27-1.891-.015-.408-.285-.94-.404-1.45-.083-.353-.036-.74-.134-1.009-.17-.468-.557-.855-.741-1.197-.278-.434-.324-1.088-.944-1.072-.812.023-.683 1.38-.605 2.144a6.873 6.873 0 0 0 1.145 3.153c.391.567 1.345 1.042.81 1.702-.45.091-.749-.173-1.012-.441-.929-.954-1.52-2.395-1.887-3.847-.134-.53-.039-1.172-.472-1.575-.873.168-.819 1.366-.741 2.08.073.665.374 1.503.605 1.892.316.528 1.082.917 1.415 1.45.178.284.428.796.134 1.197-.52.127-.829-.323-1.145-.63-.309-.3-.647-.601-.876-.945-.357-.537-.625-1.231-.809-1.828a7.227 7.227 0 0 1-.27-1.325c-.039-.434.228-1.336-.404-1.45-.494.362-.705 1.125-.742 1.767-.075 1.304.579 2.743 1.012 3.594.316.255.79.73.472 1.197-.735.141-1.311-.617-1.618-1.197-.179-.342-.286-.82-.471-1.261-.195-.469-.423-.915-.472-1.325-.054-.437.219-1.081-.27-1.325-.837.055-.717 1.007-.739 1.64-.012.288-.083.591-.068.819.056.826.518 1.295.875 1.766.265.348.608.67.674.947.206.876-.358 1.152-.606 1.639-.241.47-.401 1.22-.741 1.891-.297.587-.723 1.154-.876 1.764-.236.938.139 1.812.404 2.775.245.89.382 1.705.673 2.144.071.107.594.756.944.758.209 0 .34-.203.537-.378.314-.28.453-.423.606-.756.109-.234.16-.373.27-.63.09-.21.124-.182.133-.314.09-1.04-.936-1.721-.403-2.647.656.034.579.803.742 1.197.158.387.374.724.471 1.136.107.448.081.928.404 1.26.973.19 1.61-.263 2.561-.63.639-.248 1.403-.391 1.952-.63.229-.1.487-.315.742-.442.306-.152.669-.255.876-.378.206-.125.34-.37.539-.503.662-.444 1.498-.796 2.291-1.008 1.039-1.056 3.159-.517 4.11-1.575.321-.36.387-1.02.54-1.578.126-.464.311-.96.202-1.638l-.003-.005Zm-66.084 19.42c-.23-.164-.124-.68-.068-.947.481-.16.647.305.674.756-.163.1-.287.234-.606.189v.002Zm2.558-4.602c.015-.198-.046-.462.069-.567.19-.052.175.089.335.061.034.326-.092.503-.404.506Z" fill="#fff"/><path d="m11.428 81.707.02-.007c.262-.1.434-.35.588-.57.046-.07.092-.135.14-.194.086-.11.176-.219.263-.328.163-.203.334-.41.477-.617.131-.187.28-.369.423-.544.11-.134.217-.266.319-.403.075-.102.136-.223.194-.339.124-.25.256-.51.555-.612l.02-.007v.02c.128.838-.339 1.478-.752 2.042-.09.123-.18.246-.26.367l-.066.1c-.445.664-.866 1.293-1.107 2.112l-.01.032-.804-1.047v-.005Z" fill="#8B0E04"/><path d="M13.405 80.505c.453-.676 1.163-1.384 1.012-2.397-.433.148-.501.626-.742.944-.236.317-.513.622-.742.947-.22.317-.49.626-.741.945-.202.257-.387.637-.735.772l.771 1.003c.256-.862.713-1.525 1.177-2.214ZM6.06 79.78l-.329-.084.015-.019c.063-.086.117-.168.165-.252.222-.385.409-.85.591-1.3.073-.18.144-.357.217-.528.124-.289.219-.612.311-.924.127-.426.246-.829.43-1.159-.004-.097.044-.166.146-.198h.141c.253.08.178.296.122.456a1.001 1.001 0 0 0-.039.13c-.097.607-.284 1.24-.472 1.83-.041.131-.087.266-.133.4-.212.615-.43 1.252-.304 1.85l.004.028-.865-.23Z" fill="#8B0E04"/><path d="M6.902 79.985c-.153-.73.202-1.509.44-2.257.193-.604.377-1.23.472-1.828.027-.164.231-.471-.068-.567h-.134c-.085.027-.138.082-.133.189-.324.576-.455 1.411-.742 2.08-.26.608-.499 1.293-.807 1.83-.054.091-.11.176-.168.255l.304.078.839.223-.003-.003Zm9.572 5.13v-.031c.277-.036.36-.196.464-.398.078-.155.168-.33.365-.474.382-.446.788-.876 1.277-1.386.119-.123.23-.262.338-.396.277-.344.564-.699 1.014-.87.673.504.29 1.33-.017 1.992-.093.203-.183.394-.229.551-.527.444-1.174.938-1.982 1.311H17.7l-1.223-.296-.002-.002Z" fill="#8B0E04"/><path d="M19.939 81.576c-.623.237-.93.826-1.348 1.26-.437.454-.873.913-1.279 1.39-.445.327-.328.812-.834.876l1.218.295c.752-.346 1.38-.805 1.975-1.3.197-.666 1.114-1.872.27-2.521h-.002Zm-10.83-1.159-1.629-.289v-.032c.56-.16.737-.806.908-1.43.048-.177.094-.343.148-.5.083-.234.153-.473.226-.708.216-.717.423-1.395.856-1.818.216-.041.401-.062.554-.062.319 0 .533.08.63.24.246.395-.238 1.187-.627 1.825l-.146.239c-.353.578-.659 1.078-.717 1.597.364-.006.746-.204.977-.498.042-.052.051-.118.063-.196.013-.075.025-.16.07-.243.03-.055.088-.096.144-.14.05-.036.1-.072.127-.115.05-.075.107-.169.17-.271.345-.562.866-1.411 1.484-1.411.155 0 .31.054.46.164.077.757-.266 1.433-.6 2.087l-.07.139c-.107.214-.24.427-.37.635-.357.571-.726 1.163-.598 1.818l.008.034-2.067-1.067v.002Z" fill="#8B0E04"/><path d="M11.153 81.453c-.175-.897.562-1.657.97-2.463.349-.69.752-1.411.674-2.208-.916-.665-1.692.917-2.088 1.514-.064.095-.217.154-.27.252-.09.169-.05.333-.134.442-.226.287-.63.514-1.01.505.057-.571.414-1.117.808-1.766.586-.96 1.549-2.442-.472-2.08-.574.56-.749 1.58-1.077 2.522-.246.7-.336 1.732-1.068 1.941l1.634.291 2.034 1.052v-.002Zm3.495 2.032-1.958-.535.04-.018c.136-.064.267-.184.381-.289l.078-.07c.839-.75 1.522-1.79 2.152-3.273.178-.13.314-.351.445-.563.192-.314.394-.64.717-.646.205.043.343.127.416.255.154.268-.007.66-.124.949-.382.938-1.002 1.86-1.627 2.417-.038.107-.167.26-.318.435-.26.307-.584.69-.504.963.037.123.149.214.343.277a.13.13 0 0 0 .032.005c.272 0 1.245-.649 1.498-.883.18-.166.333-.494.481-.81.083-.178.168-.36.258-.51a3.25 3.25 0 0 1 .21-.303c.09-.118.18-.241.262-.39.041-.077.087-.168.134-.261.223-.45.503-1.013.892-1.013.022 0 .046 0 .07.007a.39.39 0 0 1 .295.198c.173.307 0 .892-.216 1.338-.412.845-.888 1.316-1.438 1.862-.19.187-.384.383-.586.601-.063.068-.136.139-.209.21-.328.316-.698.673-.596 1.163l-.02.047-1.113-1.158.005-.005Z" fill="#8B0E04"/><path d="M15.774 84.635s-.01-.022-.012-.032c-.13-.61.471-1.024.807-1.388.785-.851 1.466-1.322 2.02-2.458.263-.54.507-1.414-.067-1.514-.494-.084-.822.792-1.078 1.261-.148.276-.333.458-.471.692-.248.424-.46 1.063-.742 1.325-.243.223-1.328.958-1.55.883-.989-.335.315-1.3.473-1.703.634-.569 1.252-1.5 1.617-2.396.163-.403.437-1.05-.27-1.198-.528.012-.713.888-1.146 1.198-.544 1.286-1.218 2.442-2.154 3.28-.136.123-.292.282-.465.362l1.921.528 1.114 1.158.003.002Zm60.055 3.576.005-.018c.156-.676.506-1.261.878-1.878.362-.603.74-1.227.941-1.969.214-.783.258-1.331.134-1.63-.054-.13-.173-.266-.287-.398-.146-.168-.272-.314-.253-.43.051-.289.525-.391.914-.391h.046c.463.587.295 2.103.086 2.92l-.025.098c-.102.394-.148.573-.313.976-.22.537-.533 1.232-1.012 1.832l-.1.128c-.28.357-.598.763-.972.763h-.04l-.002-.003Z" fill="#8B0E04"/><path d="M77.264 81.89c-.034.196.416.522.538.82.163.391.005 1.127-.134 1.639-.406 1.493-1.508 2.501-1.819 3.846.42.014.769-.496 1.077-.883.438-.55.745-1.179 1.01-1.83.177-.434.216-.608.337-1.072.236-.91.36-2.346-.068-2.9-.352-.009-.89.078-.943.378l.002.002Zm-4.895 6.044.02-.016c.107-.087.204-.19.301-.29.046-.047.09-.093.134-.136.338-.33.56-.583.81-.88.16-.192.362-.42.574-.652.389-.432.79-.88.977-1.174.124-.194.214-.428.302-.654.148-.384.29-.748.583-.928.127.009.202.043.244.1.068.098.014.246-.032.373a.787.787 0 0 0-.051.171c-.093 1.013-.409 1.477-.846 2.121-.154.226-.326.478-.509.786l-.1.168c-.15.264-.323.56-.578.84l-.127.136c-.197.212-.403.433-.493.617l-.008.016-1.196-.605-.005.007Z" fill="#8B0E04"/><path d="M74.859 86.753c.69-1.166 1.225-1.53 1.352-2.898.017-.193.318-.587-.134-.63-.467.284-.547 1.058-.878 1.575-.29.453-1.1 1.281-1.552 1.825a11.3 11.3 0 0 1-.81.881c-.133.13-.277.296-.435.426l1.158.587c.114-.23.399-.512.625-.758.309-.34.493-.699.676-1.008h-.002Zm46.867-9.296c-.053-.228-.24-.471-.554-.724-.742-1.454-1.072-2.633-1.017-3.608.018-.3.122-1.32.749-1.777.506.084.47.635.441 1.076-.01.144-.02.28-.01.385.039.435.163.976.27 1.32.158.517.428 1.254.807 1.823.192.292.465.553.73.806l.143.139c.051.05.1.102.151.155l.053.054-1.76.365-.005-.017.002.003Z" fill="#8B0E04"/><path d="M122.399 75.963c-.355-.537-.625-1.232-.808-1.828a7.31 7.31 0 0 1-.27-1.325c-.039-.434.229-1.336-.403-1.45-.494.362-.706 1.125-.742 1.767-.075 1.304.579 2.742 1.009 3.594.209.168.489.437.559.733l1.712-.355a8.927 8.927 0 0 0-.184-.19c-.309-.3-.647-.598-.876-.944l.003-.002Zm7.9-.485.013-.025c.194-.353.313-.728.355-.945.158-.817-.175-1.732-.419-2.399a6.658 6.658 0 0 1-.187-.557c-.092-.226-.219-.442-.352-.674-.312-.537-.635-1.09-.523-1.791v-.019l.022.005a.294.294 0 0 0 .07.011c.046 0 .073-.018.102-.036a.2.2 0 0 1 .163-.037c.224.091.324.308.428.538.056.12.112.245.19.352.051.07.114.148.182.23.141.169.299.36.423.59.115.212.168.37.234.555.044.13.095.271.172.455.166.39.404 1.412.475 2.022.017.159.012.382.005.616-.01.36-.025.767.046 1.088l.005.02h-1.404Z" fill="#8B0E04"/><path d="M131.628 73.756c-.066-.585-.301-1.614-.472-2.019-.187-.446-.211-.65-.403-1.008-.188-.346-.455-.605-.606-.82-.221-.309-.275-.746-.605-.883-.163-.025-.146.117-.336.064-.158.993.564 1.696.876 2.458.158.613.817 1.874.605 2.964a3.513 3.513 0 0 1-.357.95h1.349c-.114-.534-.005-1.307-.048-1.706h-.003Zm-7.144 3.041a2.067 2.067 0 0 0-.212-.448c-.163-.262-.438-.494-.703-.717-.27-.228-.549-.465-.712-.733-.236-.392-.535-1.23-.608-1.898-.051-.474-.209-1.912.756-2.099.323.29.367.694.413 1.086.02.168.039.341.081.503.43 1.707 1.065 3 1.882 3.84.029.031.061.061.092.093l.02.018-1 .373-.005-.018h-.004Z" fill="#8B0E04"/><path d="M123.476 72.494c-.134-.53-.036-1.172-.472-1.575-.873.168-.819 1.365-.741 2.08.073.665.374 1.502.605 1.892.316.528 1.082.917 1.415 1.45.076.118.159.277.214.45l.959-.357a1.573 1.573 0 0 1-.093-.093c-.929-.956-1.52-2.395-1.887-3.847Zm4.915 3.214c.124-.387.119-.913-.012-1.443a27.832 27.832 0 0 0-.606-2.142 6.787 6.787 0 0 0-.282-.667c-.299-.649-.61-1.318-.187-1.933l.005-.006h.029c.666 0 1.062.86 1.379 1.552.056.123.111.241.163.348l.048.096c.321.64.759 1.516.628 2.624-.03.253-.129.494-.224.726-.102.25-.2.487-.214.733l-.737.139.007-.025.003-.002Z" fill="#8B0E04"/><path d="M128.866 71.424c-.348-.699-.762-1.914-1.549-1.891-.557.815.175 1.71.471 2.585.219.647.438 1.462.606 2.145.119.48.146 1.028.012 1.452l.696-.12c.029-.483.376-.943.437-1.46.136-1.16-.355-2.069-.673-2.71Zm3.893 4.1.007-.02c.151-.45.139-1.064.124-1.305-.046-.908-.226-1.732-.537-2.454-.059-.139-.124-.275-.187-.414-.27-.58-.548-1.18-.487-1.8a.965.965 0 0 1 .404-.098c.62 0 .895.703 1.136 1.322l.111.285c.049.118.11.225.168.33.073.13.141.252.17.364.188.737.178 1.552.168 2.342-.005.498-.01 1.015.032 1.516v.018l-1.109-.086Z" fill="#8B0E04"/><path d="M133.647 71.739c-.051-.198-.226-.426-.336-.692-.311-.747-.608-1.916-1.617-1.514-.073.763.365 1.489.674 2.208.323.75.496 1.596.537 2.459.02.368.007.912-.126 1.31l1.067.085c-.112-1.295.102-2.656-.199-3.854v-.002Zm-7.198 4.395c-.098-.2-.295-.394-.484-.58a3.554 3.554 0 0 1-.419-.462c-.617-.892-1.035-2.044-1.147-3.16-.061-.594-.161-1.586.219-1.987a.552.552 0 0 1 .403-.175c.467 0 .611.337.766.692.059.132.117.269.192.387a3.9 3.9 0 0 0 .273.41c.17.234.362.498.469.792.054.145.066.325.075.514.01.164.02.332.059.496.048.203.119.41.189.613.107.307.207.596.214.842.008.2-.024.41-.053.612-.044.298-.085.578-.012.826l.005.016-.749.178-.005-.014h.005Z" fill="#8B0E04"/><path d="M127.247 74.513c-.015-.407-.282-.94-.404-1.45-.083-.353-.036-.74-.134-1.008-.17-.469-.557-.858-.741-1.197-.278-.435-.324-1.09-.944-1.073-.812.023-.683 1.38-.605 2.145a6.873 6.873 0 0 0 1.145 3.152c.25.362.727.685.902 1.045l.718-.169c-.124-.427.085-.956.065-1.443l-.002-.002Zm-7.663 3.658a1.394 1.394 0 0 0-.034-.187c-.044-.191-.226-.405-.421-.633-.085-.1-.17-.202-.25-.307a12.69 12.69 0 0 0-.148-.189c-.319-.405-.681-.865-.732-1.584-.01-.132.009-.289.031-.455.015-.12.032-.246.037-.367.002-.084.005-.173.005-.264.004-.598.009-1.34.751-1.39.365.177.331.55.299.915-.012.152-.027.296-.01.425.039.321.188.663.346 1.024l.126.294c.08.191.144.387.207.576a4.7 4.7 0 0 0 .265.685c.131.25.409.71.795.986l.024.018-1.288.476v-.02l-.003-.003Z" fill="#8B0E04"/><path d="M120.043 76.72c-.18-.34-.287-.819-.472-1.26-.194-.47-.42-.915-.472-1.325-.053-.437.219-1.081-.269-1.325-.839.055-.718 1.006-.74 1.64-.012.288-.082.591-.068.819.056.824.518 1.295.876 1.766.265.348.608.67.673.945.015.066.027.127.034.188l1.24-.457c-.345-.246-.62-.649-.8-.992l-.002.002Zm11.313-14.086c-.168-.355-.659-.881-.873-1.2-.056-.084-.137-.166-.202-.252-.474-.636-.929-1.441-1.411-1.958-.141-.15-.394-.227-.537-.38-.148-.157-.199-.344-.336-.505-.206-.246-.442-.43-.605-.63-.691-.854-1.792-1.542-2.624-2.15-.204-.439-.885-.434-1.075-.885-.734-.212-1.391-.644-2.018-1.013-1.999-1.172-3.85-2.303-5.112-4.106-.353-.132-.486-.471-.875-.569.029-.239-.132-.296-.202-.442-.47-.252-.798-.64-1.143-1.01-.341-.367-.832-.635-1.009-1.136-1.01-.578-1.831-1.443-2.826-2.149-.248-.175-.564-.27-.807-.444-.244-.17-.438-.393-.674-.569a80.39 80.39 0 0 0-2.894-2.084 25.303 25.303 0 0 0-1.547-.95c-1.432-.824-2.645-1.55-4.374-1.962-.343-.082-.74-.202-1.078-.255-.214-.034-.447.03-.673 0-.33-.043-.654-.184-1.012-.255-1.026-.198-2.043-.564-3.098-.698-1.252-.16-2.544-.137-3.772-.385-.204-.041-.391-.162-.605-.191-.287-.039-.56.032-.808 0-.965-.128-1.626-.649-2.76-.635-.68.612.628 2.494-.544 2.522-.62.013-.674-1.138-.87-1.894-.36-1.368-.295-2.64-.534-3.847-.058-.291-.058-.705-.133-.947-.151-.487-.72-1.26-1.007-1.515-.661-.585-1.673-1.061-2.76-.825-.448.765.202 1.02.603 1.325.744.57 1.532 1.325 1.814 2.274.304 1.024.124 2.508.129 3.783 0 .62.136 1.297.2 1.892.058.564.318 1.35-.41 1.575-.56-.417-.612-1.245-.668-1.894-.06-.685.044-1.407.005-2.144-.017-.303-.114-.617-.134-.947-.036-.63.073-1.33-.063-1.892-.17-.698-1.211-2.128-2.016-1.768-.226.1-.433.619-.474.945-.107.837.32 1.142.603 1.766.545 1.202.571 2.827.53 4.416-.02.782.309 2.892-.545 2.835-.287-.018-.474-.384-.537-.819-.163-1.117.153-3.073.075-3.783-.082-.742-.4-1.987-.6-2.46-.343-.813-.705-.715-1.143-1.452.012-.035.029-.064.046-.096l-.406.237-1.107.516c1.085.4 1.479 1.753 1.479 3.24 0 .62-.173 1.324-.202 2.016-.041 1.022.17 3.528-.742 3.466-.649-.043-.403-1.386-.403-2.205 0-.724-.042-1.782 0-2.647.048-1.025.119-1.949-.134-2.586-.105-.26-.226-.41-.338-.567-.039-.054-.404-.362-.282-.626l-.949.087c-.187.926-.479 1.778-.384 2.872.03.33.122.68.202 1.009.08.327.265.66.27.947.007.414-.348.98-.472 1.577-.095.462.037.979-.068 1.386-.063.25-.391.765-.674.756-.64-.016-.54-1.175-.54-2.017 0-.712.064-1.816 0-2.522-.128-1.404-.294-2.663.203-3.72.073-.067.162-.152.265-.234h-2.24c.005.016.015.03.02.046.102.457-.713.997-.876 1.325-.557 1.122-.114 2.863.134 4.16.163.85.41 1.812.335 2.397-.046.36-.095.829-.875.883-.555-.642-.314-1.393-.404-2.144-.048-.407-.224-.846-.335-1.26-.11-.404-.338-.79-.404-1.198-.311-1.937.428-3.212 1.432-4.231l-2.453-.13c-.005.312-.324.521-.463.828-.287.647-.262 1.384-.403 2.208-.151.879-.343 1.794-.404 2.711-.06.888.127 1.894-.472 2.522-.6-.038-.712-.753-.741-1.26-.027-.483.073-1.471.201-2.398.107-.758.163-1.602.339-2.207.031-.114.177-.267.201-.378.146-.644.112-1.18.404-1.64a2 2 0 0 1 .423-.48l-2.342-.491c-.129.728-.559 1.23-.707 1.916-.193.9-.22 2.09-.27 3.153-.042.828.095 1.66-.068 2.397-.08.362-.426.844-.674.82-.53-.053-.374-1.06-.336-1.829.076-1.554-.046-2.51.202-3.846.22-1.182.562-2.197 1.167-2.754l-2.295-.483c-.127.282-.416.27-.623.462-.515.476-.865 1.188-1.145 1.892-.311.78-.42 1.504-.54 2.396-.053.403-.2.79-.202 1.198-.005.742.265 1.588-.335 2.018-1.245-.213-.747-1.702-.606-2.585.141-.886.146-1.694.404-2.522.032-.1.168-.2.202-.316.14-.465.228-.677.471-1.073.322-.523.506-.755.944-1.197.182-.184.362-.403.562-.544l-2.055-1.138c-.078.28-.384.31-.528.419-.659.51-1.383 1.52-1.617 2.586-.24 1.104-.148 2.273-.27 3.341-.06.533-.214 1.243-.742 1.136-.55-.114-.406-1.57-.338-2.208.076-.68.1-1.45.202-2.017.243-1.343 1.026-2.221 1.617-3.088.363-.062.694-.396 1.058-.515l-1.773-1.022c-.138.319-.571.41-.834.59-.318.218-.552.507-.875.694-.202.587-.42 1.16-.54 2.017-.073.534-.068 1.12-.134 1.766-.022.223-.126.43-.133.63-.017.406.158.745.068 1.136-.076.326-.501.838-.81.82-.756-.044-.401-1.58-.336-2.27.064-.662.217-1.547.134-2.144.438-.93.445-2.28 1.28-2.963.191-.158.666-.396 1.008-.506.139-.043.321-.102.506-.132l-2.383-1.224c-.163.37-.36.193-.615.473-.19.207-.508.813-.606 1.134-.046.157-.012.46-.068.758-.078.414-.296.953-.404 1.513-.102.528-.209 1.104-.27 1.578-.09.687 0 2.194-.471 2.333-.375.109-.74-.21-.808-.567-.124-.637.292-1.536.404-2.206.097-.566.139-1.138.27-1.702.27-1.163.438-2.197 1.01-3.153.237-.227.736-.548 1.188-.503l-.347-1.063c-.324.043-.694-.073-1.112-.04-.46.238-.627.716-.81 1.197-.18.468-.435 1.001-.542 1.513-.08.387-.078.82-.136 1.261-.134.986-.46 2.13-.545 3.153-.056.671.11 1.413-.34 1.953-.292.032-.355.127-.606.125-.454-.005-.683-.403-1.009-.444-.124-.016-.554.118-.742.189-.282.105-.454.289-.741.314-.499.046-1.031-.294-1.683-.38-.849-.114-1.892.027-2.695-.068-1.454-.171-3.273-.772-4.715-.26-.676.24-1.055.442-1.685.754-.503.25-1.097.432-1.415.628-.178.109-.239.32-.406.441-.178.13-.438.2-.608.314-.346.233-.633.544-1.012.756-.311.262-.637.505-.944.817-.14.141-.247.358-.406.503-.18.169-.398.187-.54.378-.15.205-.167.46-.27.692-.325.148-.573.478-.741.692-.375.476-.888.767-1.282 1.195-.192.21-.338.521-.54.756-.199.232-.5.402-.673.63-.144.187-.195.428-.338.63-.136.19-.309.315-.472.504a10.698 10.698 0 0 0-1.216 1.764c-.345.605-.858 1.363-1.082 1.953-.08.209-.056.468-.136.694-.073.205-.27.364-.338.567-.127.38-.156.894-.273 1.324-.114.428-.27.85-.337 1.261-.073.43.026.881-.071 1.325-.046.214-.243.473-.338.692-.353.813-.591 1.466-1.082 2.078-.314.066-.53-.166-.742 0-1.595 1.28-3.468 2.472-4.856 3.838-.518.51-.878.99-1.35 1.511-.233.257-.557.453-.742.692-.323.421-.522.935-.81 1.386-.145.228-.347.41-.471.63-.148.262-.25.506-.406.756-.574.924-1.02 1.915-1.554 2.898-.399 1.853-.538 3.667-.28 5.738.28.096.51.237.876.253.763.591 1.583.887 2.558 1.265.35.137.647.344 1.01.505.714.32 1.543.467 2.287.76.691.274 1.343.709 1.953 1.075.674.405 1.413 1.256 1.95 1.327 2.736.364 4.524-1.395 5.934-2.702.017-.268.248-.405.406-.63.144-.203.239-.494.406-.692.367-.442.91-.82 1.35-1.259.545-.542 1.204-1.11 1.688-1.636.55-.6 1.147-1.111 1.687-1.637.226-.22.543-.41.742-.628.138-.153.187-.421.338-.63.153-.212.355-.37.472-.568.253-.42.583-.962.744-1.322.245-.553.245-1.313.408-1.891.086-.305.3-.594.475-1.009.15-.36.381-2.016 1.082-1.889.47.084.236.722.605 1.01.93-.068 1.389-.566 1.955-.942.618-.41 1.194-.742 1.754-1.13.299-.21.583-.44.878-.63.218-.14.527-.224.741-.377.312-.22.501-.544.81-.756.326-.223.669-.441 1.012-.628.258-.139.564-.17.81-.314.444-.264.94-.763 1.281-1.07.435-.391.86-.774 1.282-1.133.082-.276.116-.608.272-.883.2-.36.579-.692.81-1.07.119-.196.214-.426.338-.63.211-.347.868-1.478.678-2.081-.082-.26-.727-.44-.739-.758-.012-.33.486-.722 1.012-.628.44.077.749.728.807 1.01.277 1.386-.576 2.063-.815 3.09-.824.8-1.077 1.83-1.824 2.644-.31.34-.77.567-1.147.88-1.155.964-2.325 1.85-3.441 2.769-.076.587-.149 1.024-.07 1.513.028.19.172.383.201.567.032.207-.041.416 0 .63.192 1.047.732 1.874 1.274 2.588.365.478.878.972.941 1.325.146.82-.831 1.698-1.352 2.331-.768.933-1.41 1.985-2.162 2.77-.05.31-.175.55-.406.692-.182.503-.23 1.129-.301 1.737l1.14-.237c-.082-.29.054-.64.127-.947.554-2.301 2.16-4.186 3.502-5.738.303.134.644.237.741.567-.76.774-1.337 1.802-1.887 2.9-.155.314-.404.682-.54 1.008-.267.646-.27 1.336-.471 1.955a.421.421 0 0 1-.086.137h.43c-.019-.383.135-.865.259-1.209.62-1.705 1.707-3.519 2.626-4.666.479.182.83.485 1.347.63-.617.683-1.067 1.343-1.685 2.208-.358.501-.795 1.15-1.012 1.828-.102.319-.187.938-.391 1.366l.904.19c-.116-.545.197-1.267.363-1.681.515-1.277 1.27-2.543 2.222-3.405.275.289.492.632.742.947-.153.423-.518.65-.875.883-.27.466-.419.912-.674 1.513-.075.18-.253.31-.338.506-.214.487-.2 1.106-.474 1.55l.742.298c-.03-.483.031-1.02.136-1.345.104-.324.18-.317.338-.63.216-.436.44-.75.741-1.137.134-.17.192-.36.27-.441.197-.205 1.277-1.05 1.55-1.072 1.191-.098.34 1.06-.27 1.136-.13.336-.397.58-.606.883-.182.264-.443.54-.606.82-.37.634-.381 1.43-.741 2.09l1.882.672a2.036 2.036 0 0 1 .005-.241c.022-.262.301-.569.404-.947.029-.105-.035-.28 0-.378.09-.246.28-.52.403-.82.287-.68.336-.885.808-1.385.391-.415.773-.829 1.347-.442.155.512-.467.76-.742 1.072-.27.754-.498 1.309-.875 2.333-.117.319-.287.874-.516 1.198l.496.29c.234-1.042.742-1.822 1.165-2.685.851-.446 1.248-1.646 2.626-1.386-.116.605-.712.917-1.077 1.325-.387.43-.666.903-1.077 1.324v.378c-.443.378-.382 1.23-.941 1.498l1.303.897c.01-.447.168-.865.38-1.323.238-.512.425-.901.741-1.386.38-.587.766-1.181 1.347-1.514.36-.204 1.365-.541 1.348.126-.005.236-.38.391-.606.566-.26.203-.425.394-.674.506-.347.587-.739 1.279-1.077 2.08-.172.41-.255 1.127-.605 1.473l1.065.541c-.195-1.368 1.053-2.924 1.63-3.972.422-.188.865-.946 1.414-.441-.668 1.664-2.096 2.62-2.02 4.98-.013.005-.025.012-.037.016l.914.608c.059-.46.321-1.216.402-1.57.039-.17-.042-.294 0-.442.07-.25.27-.53.403-.82.236-.505.382-.748.674-1.135.114-.15.148-.328.202-.378.165-.153.814-.56.943-.567.22-.014.414.027.54.253-.02.548-.698.76-.943 1.197-.11.196-.134.49-.27.758-.11.216-.35.414-.404.567-.092.261-.06.653-.134.946-.07.28-.221.506-.27.756-.063.33-.02.685-.14.97l.926.389c-.054-.772.37-1.976.496-2.303.095-.249.136-.494.202-.631.481-.997 1.884-2.01 2.626-2.397.122-.063.323.064.404.125-.07.91-1.209 1.343-1.751 2.02-.24.552-.6 1.087-.742 1.89-.075.429-.005 1.29-.255 1.715l1.223.53a2.48 2.48 0 0 1 .178-1.108c.036-.096.235-.196.27-.315.033-.116-.035-.302 0-.377.24-.524.688-1.184 1.077-1.703.72-.958 1.286-1.513 2.154-2.144.27 0 .433.098.54.253-.304.871-1.038 1.34-1.617 1.955-.46.785-.917 1.463-1.28 2.458-.126.348-.208.92-.432 1.384l1.233.596c.243-1.318.99-2.164 1.289-3.432.45-.653 1.019-1.19 1.549-1.766.23-.028.377.025.54.063.345.588-.326.897-.606 1.261a7.12 7.12 0 0 0-.943 1.703c-.098.27-.095.555-.202.82-.231.568-.52 1.199-.897 1.754l1.096.692c0-.018 0-.032.005-.05.017-.148.153-.246.202-.378.087-.239.11-.473.202-.694.085-.203.165-.421.27-.63.345-.69.82-1.596 1.347-2.27.489-.626.715-1.022 1.415-1.325.122-.009.144.078.27.064.234.546-.394.742-.403 1.261-.633.408-1.046 1.455-1.416 2.206-.32.658-.69 1.33-.875 1.766-.073.17-.117.36-.173.519l1.265.626c.026-.5.272-1.14.391-1.459.326-.885.42-1.004.876-1.639.571-.797 1.262-1.502 1.685-2.458-.037-.31.445-.17.605-.125.158.992-.52 1.643-.943 2.333-.263.428-.474.862-.807 1.197-.093.528-.436.904-.606 1.514-.085.298-.122.714-.258 1.003l.868.208c.046-.642 1.438-1.576 1.476-2.281.377-.216.453-.713.81-.945.21-.667.62-1.142.876-1.766.024-.082.119-.1.133-.189.4-.08.482.139.674.253-.16 1.147-.973 2.003-1.549 2.963-.243.405-.47.981-.807 1.45a4.94 4.94 0 0 1-.747.797l.885.43c.19-.369.63-.77.759-.91.19-.208.294-.399.472-.567.946-.892 1.78-1.791 2.028-3.15.46-.41.593-1.127 1.014-1.575.987-.171 1.59-.633 2.293-1.007.37-.195.783-.31 1.145-.503 2.209-1.174 4.061-2.63 5.803-4.151 2.366-2.07 4.146-4.607 6.276-6.863.3-.78.91-1.407 1.418-2.078.518-.685.943-1.427 1.418-2.142.705-1.063 1.459-2.208 2.028-3.275.068-.128.01-.276.068-.378.041-.075.219-.107.27-.189.45-.715.744-1.493 1.15-2.267.734-1.4 1.262-2.975 1.963-4.347.133-.26.218-.701.673-.63.394 1.208-.963 2.03-.746 3.34.014.096.199.47.267.57.304.432 1.041.88 1.748 1.263.642.346 1.652 1.013 2.289 1.138 1.551.305 3.497.523 4.445 1.206.326.018.54-.139.807 0 .438 1.134.747 2.804 1.139 3.91.16.458.325.724.469 1.011.08.162.068.36.134.505.408.902.941 1.4 1.546 2.022.307.316.552.642.805.947.44.525.944 1.001 1.479 1.452.413.348.914.835 1.344 1.01 1.309.533 2.588-.177 3.303-.623.158-.098.323-.171.474-.253.623-.341 1.16-.758 2.021-.879.649-.69 1.722-.723 2.765-1.003.209-.057.389-.19.608-.25.814-.23 1.748-.322 2.629-.501.928-.19 1.865-.31 2.762-.374.579-.446 1.017-1.236 1.15-2.142.141-.942-.029-2.51-.33-3.152l-.022-.002Z" fill="#8B0E04"/><path d="M46.486 137.091a2.094 2.094 0 0 0-.212-.447c-.396-.651-1.184-1.345-1.952-.905-1.292-1.077-2.233-2.4-3.167-3.847-.659-1.024-1.405-2.067-1.887-3.153-.484-1.094-1.03-2.21-1.483-3.341-.19-.476-.452-.947-.606-1.386-.214-.619-.177-1.275-.338-1.892-.07-.268-.289-.535-.335-.819-.044-.269.063-.708 0-1.008-.132-.624-.837-1.232-1.214-2.017-.284-.592-.564-1.366-.605-1.955-.051-.717.05-1.999.807-2.017.38.849.83 1.675 1.416 2.269.257.264.573.697 1.077.442.362-.735-.72-1.002-1.078-1.575-.126-.203-.228-.587-.335-.883-.367-.997-.314-1.632.807-1.828.472.391.37.892.674 1.45.355.655 1.218 1.104 1.145 1.828-.05.5-.605.794-.807 1.135-.2.337-.489.831-.472 1.261.017.39.328.599.404.945.063.294-.054.637 0 .947.036.214.226.489.338.756.119.286.153.653.27.883.095.184.299.309.403.505.13.244.212.549.336.819.124.269.306.533.404.758.092.217.073.487.202.756.097.205.267.403.403.631.13.214.282.464.404.694.885 1.652 1.982 3.327 2.964 4.73.788 1.122 1.51 2.114 2.425 3.088.43.46.956.893 1.011 1.198.132.714-.51 1.329-.739 2.085-.095.316-.263-.101-.263-.101l.003-.006Zm62.412-15.936c-.248.066-.484.283-.81.378-.438.13-1.532.553-2.064.647-.613.106-1.241.12-1.683.252-.455.134-.888.444-1.347.694-1.26.688-2.804 1.414-3.908 2.206a19.513 19.513 0 0 1-4.85 2.775c-.641.252-1.196.698-1.818 1.072-.268.159-.603.214-.876.378-.245.147-.43.366-.673.505-1.049.594-2.187 1.04-3.03 1.828-.88.141-1.355.666-2.223.819-.076-.503.516-.697.81-.947.094-.08.112-.23.201-.314 1.153-1.074 2.639-1.917 3.908-2.964 1.671-1.381 3.629-2.506 5.39-3.783.452-.327.926-.589 1.415-.883.469-.282.897-.628 1.347-.944.452-.319.948-.565 1.415-.883 1.124-.765 2.378-1.439 3.57-2.208.231-.148.382-.358.605-.506.46-.302 1.022-.5 1.484-.819.421-.291.763-.788 1.347-.756.012 1.439.268 2.65 1.214 3.217 0 0 .525.075.792.027.268-.048 0 .152-.211.207l-.005.002Zm-31.275 6.219c.228.102.82.239 1.186.166 1.282-.248 2.109-.829 3.098-1.45.73-.458 1.336-1.002 1.888-1.514 2.288-2.123 4.442-4.541 6.534-6.935.802-.917 1.62-1.707 2.492-2.586.258-.259.487-.678.944-.694.177.41.158.747.335 1.072.501.908 1.683 1.375 3.369 1.072.398-.07.812-.391 1.279-.63.902-.462 1.2-.615 1.887-1.261.253-.239.501-.558.741-.506.443.096.387.979.472 1.325.209.285.499.571.876.819.316.21.705.558 1.077.631.868.168 1.671-.303 2.561-.378.834-.396 1.378-1.065 2.29-1.386-.138.457-.569.644-1.011.819-.253.324-.684.433-1.078.695-.381.252-.646.646-1.009.883-.452.293-1.041.455-1.481.758-.214.145-.403.352-.605.505-.608.455-1.277.929-1.953 1.386-.426.289-.895.537-1.347.82-.445.277-.847.651-1.28.944-3.059 2.074-6.108 3.995-9.16 6.305-.306.232-.695.414-1.01.694-.084.075-.104.237-.201.317-.399.318-.885.571-1.347.883-.348.232-.786.649-1.28.944-.527.317-.977.381-1.213.947-.129.312-.097.747-.068 1.072-.746.324-1.337.804-2.089 1.072-.489.176-1.15.221-1.819.378-.617.146-1.344.31-2.02.189-.584-.102-1.355-.771-1.683-1.197-.222-.287-.329-.744-.606-1.136-.121-.171-.29-.341-.404-.505-.347-.492-.712-.892-1.145-1.45-.32-.414-.659-.706-.606-1.072.117-.82 2.097-1.081 2.561-1.766 0 0 .18-.524.834-.23h-.01Zm-26.028 6.471c-.43.248-1.019.084-1.617.189-.387.068-.712.334-1.01.314-.383-.025-.512-.294-.809-.442-.265-.013-.6.232-.742.125-1.009-.899-1.692-2.014-2.492-3.152-.73-1.036-1.532-2.146-2.223-3.341-.464-.802-.849-1.61-1.28-2.459-.018-.102.064-.109.069-.189h.134c1.17.945 2.468 1.767 3.703 2.648 1.097.439 2.213 1.026 3.368 1.513.827.348 1.807.783 2.695 1.136.52.207 1.114.33 1.347.883-.477.838-.72 1.889-1.145 2.775h.002Zm-10.172-10.782c.06-.039.121-.075.134 0 .484-.087.948.309 1.213.63.849.23 1.552.836 2.425 1.197.384.16.856.267 1.279.442.776.323 1.53.612 2.492.883.805.228 1.45.364 2.493.505.148.021.377-.036.54 0 .16.037.265.18.404.189.605.046 1.332-.232 1.886.189.215.419-.23.783-.337 1.261-.14.633.109 1.375-.202 1.955a25.89 25.89 0 0 1-3.908-1.388c-1.228-.544-2.371-1.159-3.638-1.639-.837-.553-1.975-1.397-2.896-2.08-.61-.453-.9-.77-1.416-1.325-.2-.214-.603-.426-.472-.819h.003Zm35.502 12.357c.435-.073.523.184.673.378-.209.286-.296.687-.741.755-.146-.305-.066-.885.068-1.135v.002ZM40.28 115.306c-.216-.003-.258-.121-.54-.378-.287-.264-.851-.758-1.012-1.198-.04-.113.032-.266 0-.441-.043-.25-.335-.774-.201-1.197.102-.321.561-.633 1.077-.442.479 1.065 1.206 1.898 1.685 2.964-.389.23-.627.698-1.011.694l.002-.002Zm31.728 5.738h.133c.54.635 1.972 1.677 1.078 2.522-.426.4-1.2.564-1.686 1.008.107.958.954.767 1.686.314.377-.234.792-.756 1.077-.756.374-.002.535.424.742.631.255.257.522.382.673.63.085 1.141-.659 1.555-1.347 2.145-.452.384-.851.789-1.28 1.072-.862-2.115-1.925-4.041-3.5-5.486.809-.692 1.667-1.338 2.424-2.08Zm-1.82-2.144c.567-.005.616.475.944.692v.694c-.632.405-1.396 1.998-2.359 1.828-.471-.085-.583-.743-1.009-1.009.912-.639 1.583-1.502 2.425-2.205Zm29.775-3.342c-4.28 4.065-8.905 7.807-13.338 11.729-.751.642-1.534 1.254-2.222 1.955-.322.228-.84.558-1.214.884-.35.305-.926.785-.472 1.261.377.088.547-.253.74-.442.211-.207.398-.389.605-.567 1.306-1.122 2.566-2.235 3.84-3.341 1.474-1.282 3.03-2.618 4.445-3.847.229-.198.518-.309.742-.505.323-.28.54-.676.875-.945.304-.243.589-.425.876-.694.272-.255.576-.514.875-.756 1.236-.999 2.422-1.914 3.57-2.963.516-.471 1.406-.943 1.347-1.766-.141-.119-.557-.21-.673 0l.004-.003ZM71.764 21.023l-1.233-.519-.66-.578c.454-.268.675-.778.994-1.15.398-.466.98-.714 1.347-1.197.63-.011.973-.482 1.549-.694.455-.166 1.033-.148 1.549-.253 1.345-.273 2.558-.978 3.368-1.955.35-.423.613-1.293 1.077-1.388.465-.094 1.236.407 1.617.567 1.138.475 2.133.47 3.57.694.642.1 1.318.255 1.82.252.238 0 .478-.116.741-.125.314-.011.654.119 1.012.126 1.164.022 2.521-.183 3.771-.19 2.242-.01 3.73.112 4.784 1.136.632.617 1.165 1.673 1.279 2.522.14 1.054-.178 2.063-.27 3.153-1.858-.039-2.882-1.207-4.715-1.386-.64-.064-1.557-.023-2.223-.064-1.267-.078-3.716-.048-5.323.125-2.009.219-3.957.549-6.063.82-1.014.13-2.456.482-3.706.505-.53.009-1.157-.018-1.683-.064-.338-.027-1.52-.405-2.045-.23l-.557-.107Zm1.929 1.22c1.213.166 2.354.383 3.57.253 1.61-.17 3.419-.615 5.053-.756.793-.068 1.522-.211 2.157.064-.088.906-1.226.828-1.683 1.386-.987.184-2.417.512-3.504.883-.508.173-.944.449-1.347.567-.25.075-.528.089-.769.123l-.211-.066-.949-.71-1.157-.781-1.129-.883-.046-.078h.02l-.005-.002Z" fill="#FFCF71"/><path d="M81.057 55.431v-5.87l-4.947-4.63H62.663l-4.944 4.63v8.502l4.944 4.627H71.5l.795.774v2.508l-.793.74h-4.197l-.825-.742v-2.802H57.72v5.734l4.944 4.63H76.11l4.947-4.63v-8.365l-4.947-4.63h-8.8l-.83-.774v-2.642l.83-.774h4.19l.795.771v2.944h8.762Z" fill="#FDB913"/><path d="M65.691 52.127v3.369l1.228 1.151h8.84l4.506 4.218v7.675l-4.506 4.252H63.05l-4.542-4.252v-4.634h7.183v2.431l1.228 1.15h4.971l1.228-1.15v-3.234l-1.228-1.15h-8.84l-4.542-4.22v-7.841l4.542-4.22H75.76l4.506 4.22v4.8h-7.147v-2.565l-1.228-1.15h-4.97l-1.229 1.15Z" fill="#fff"/><path d="M79.434 53.876v-3.574l-4.115-3.85H63.496l-4.117 3.85v6.984l4.117 3.85h8.73l1.73 1.62v3.923l-1.73 1.587H66.55l-1.726-1.587v-1.994h-5.445v3.44l4.117 3.85h11.823l4.115-3.85v-6.847l-4.115-3.851H66.55l-1.726-1.587v-4.06l1.729-1.619h5.673l1.73 1.619v2.096h5.478Z" fill="#FDB913"/></svg>